<svg xmlns="http://www.w3.org/2000/svg" width="172" height="34" viewBox="0 0 172 34" fill="none"><rect width="172" height="34" fill="#49F9A4"></rect><path d="M139.759 5L144.503 10.7868H165.718L167 5H139.759Z" fill="black"></path><path d="M162.257 19.4365L163.347 14.5635H143.862L140.721 29H161.744L163.026 23.1523H148.861L149.694 19.4365H162.257Z" fill="black"></path><path d="M82.2658 5.91371C81.4326 5.30457 80.4712 5 79.2534 5H56.0508L60.7298 10.7868H76.3691C76.5614 10.7868 76.6895 10.8477 76.6895 11.0305C76.6895 11.0914 76.6895 11.1523 76.6895 11.2132L75.7922 15.1726C75.7281 15.4772 75.5358 15.599 75.2794 15.599H59.6402L56.6918 29H63.55L65.2806 21.1421H76.3691C77.9715 21.1421 79.3175 20.5939 80.4712 19.5584C81.5608 18.5228 82.3299 17.1827 82.6504 15.7208L83.8041 10.4822C83.9964 9.75127 83.9964 9.08122 83.8041 8.41117C83.5478 7.37563 83.035 6.58376 82.2658 5.91371Z" fill="black"></path><path d="M110.468 5.91371C109.635 5.30457 108.673 5 107.455 5H84.2528L88.9318 10.7868H104.571C104.763 10.7868 104.892 10.8477 104.892 11.0305C104.892 11.0914 104.892 11.1523 104.892 11.2132L103.994 15.1726C103.93 15.4772 103.738 15.599 103.481 15.599H87.8421L84.8938 29H91.752L93.4826 21.1421H104.571C106.173 21.1421 107.519 20.5939 108.673 19.5584C109.763 18.5228 110.532 17.1827 110.852 15.7208L112.006 10.4822C112.198 9.75127 112.198 9.08122 112.006 8.41117C111.75 7.37563 111.237 6.58376 110.468 5.91371Z" fill="black"></path><path d="M52.3333 5L48.3594 22.7259C48.2953 23.0305 48.103 23.1523 47.8466 23.1523H38.681C38.3605 23.1523 38.2323 23.0305 38.2964 22.7259L42.2062 5H29.5794L34.1302 10.6041L31.31 23.5178C30.9895 25.0406 31.2459 26.3198 32.0791 27.4162C32.9765 28.4518 34.1943 29 35.7967 29H49.1926C50.795 29 52.0769 28.4518 53.1024 27.4162C54.0639 26.3807 54.7689 25.0406 55.0894 23.5178L57.7173 11.5787L52.3333 5Z" fill="black"></path><path d="M134.952 5H112.775L119.954 13.0406H127.966L125.979 10.7868H132.132C132.453 10.7868 132.581 10.9086 132.453 11.2132L131.619 15.1117C131.555 15.4162 131.363 15.5381 131.107 15.5381H115.147L114.121 20.1066L112.198 28.9391H119.057L120.787 21.0812H124.569L129.632 28.9391H137.516L131.748 21.0812C131.748 21.0812 133.927 21.3249 136.17 19.4365C137.388 18.401 138.029 17.0609 138.413 15.599L139.567 10.4213C139.888 8.89848 139.631 7.61929 138.734 6.58376C137.772 5.54822 136.555 5 134.952 5Z" fill="black"></path><path d="M25.4132 5H12.9787C11.4404 5 10.0944 5.54822 9.06888 6.58376C7.97926 7.61929 7.27421 8.89848 6.95373 10.4822L6.88964 10.7259L6.82554 10.9086L6.12049 14.198C5.80001 15.7208 6.05639 17 6.88964 18.0964C7.78697 19.132 9.06888 19.6193 10.6713 19.6193H20.6061C20.9265 19.6193 21.0547 19.7411 20.9265 20.0457L20.3497 22.7259C20.2856 23.0305 20.0933 23.1523 19.8369 23.1523H11.5045C11.184 23.1523 11.0558 23.0305 11.1199 22.7259L11.4404 21.3858H4.5822L4.13353 23.5178C3.81306 25.0406 4.06944 26.3198 4.90268 27.4162C5.80001 28.4518 7.01783 29 8.62021 29H20.9906C22.593 29 23.939 28.4518 24.9645 27.4162C25.9901 26.3807 26.6951 25.0406 27.0797 23.5178L27.8488 19.802C28.2334 18.2792 27.9129 17 27.0797 15.9036C26.1824 14.868 24.9645 14.3198 23.3622 14.3198H13.4274C13.1069 14.3198 12.9787 14.198 13.0428 13.8934L13.6197 11.2132C13.6838 11.0914 13.7478 10.9695 13.8119 10.9086C13.876 10.8477 14.0042 10.7868 14.1965 10.7868H22.593C22.9135 10.7868 23.0417 10.9086 22.9135 11.2132L22.6571 12.5533H29.5153L29.964 10.4822C30.2845 8.95939 30.0281 7.6802 29.1307 6.58376C28.2975 5.54822 27.0156 5 25.4132 5Z" fill="black"></path></svg>